<?xml version="1.0" encoding="UTF-8" standalone="no"?>
<!DOCTYPE svg PUBLIC "-//W3C//DTD SVG 1.1//EN" "http://www.w3.org/Graphics/SVG/1.1/DTD/svg11.dtd">
<svg width="100%" height="100%" viewBox="0 0 20 20" version="1.1" xmlns="http://www.w3.org/2000/svg" xmlns:xlink="http://www.w3.org/1999/xlink" xml:space="preserve" xmlns:serif="http://www.serif.com/" style="fill-rule:evenodd;clip-rule:evenodd;stroke-linejoin:round;stroke-miterlimit:2;">
    <g transform="matrix(2.21186,0,0,2.63921,-12.8247,-15.8366)">
        <ellipse cx="10.319" cy="9.79" rx="2.487" ry="2.084" style="fill:rgb(12,125,105);"/>
    </g>
    <g transform="matrix(1.98525,0,0,2.34589,-17.2075,-9.27127)">
        <path d="M13.705,3.952C16.485,3.952 18.742,5.862 18.742,8.215C18.742,10.568 16.485,12.478 13.705,12.478C10.925,12.478 8.668,10.568 8.668,8.215C8.668,5.862 10.925,3.952 13.705,3.952ZM13.705,4.663C11.388,4.663 9.507,6.254 9.507,8.215C9.507,10.175 11.388,11.767 13.705,11.767C16.022,11.767 17.902,10.175 17.902,8.215C17.902,6.254 16.022,4.663 13.705,4.663Z" style="fill:rgb(12,125,105);"/>
    </g>
</svg>
