<?xml version="1.0" encoding="UTF-8" standalone="no"?>
<!DOCTYPE svg PUBLIC "-//W3C//DTD SVG 1.1//EN" "http://www.w3.org/Graphics/SVG/1.1/DTD/svg11.dtd">
<svg width="100%" height="100%" viewBox="0 0 20 20" version="1.1" xmlns="http://www.w3.org/2000/svg" xmlns:xlink="http://www.w3.org/1999/xlink" xml:space="preserve" xmlns:serif="http://www.serif.com/" style="fill-rule:evenodd;clip-rule:evenodd;stroke-linejoin:round;stroke-miterlimit:2;">
    <g transform="matrix(1.58992,0,0,1.48751,0,0)">
        <path d="M6.29,0C9.761,0 12.579,3.012 12.579,6.723C12.579,10.433 9.761,13.445 6.29,13.445C2.818,13.445 0,10.433 0,6.723C0,3.012 2.818,0 6.29,0ZM6.29,1.494C3.59,1.494 1.398,3.837 1.398,6.723C1.398,9.608 3.59,11.951 6.29,11.951C8.99,11.951 11.182,9.608 11.182,6.723C11.182,3.837 8.99,1.494 6.29,1.494Z" style="fill:rgb(12,125,105);"/>
    </g>
    <g transform="matrix(1.78298,0,0,1.88279,-10.0849,-8.22509)">
        <ellipse cx="11.265" cy="9.68" rx="2.804" ry="2.656" style="fill:rgb(12,125,105);"/>
    </g>
</svg>
