<?xml version="1.0" encoding="UTF-8" standalone="no"?>
<!DOCTYPE svg PUBLIC "-//W3C//DTD SVG 1.1//EN" "http://www.w3.org/Graphics/SVG/1.1/DTD/svg11.dtd">
<svg width="100%" height="100%" viewBox="0 0 20 20" version="1.1" xmlns="http://www.w3.org/2000/svg" xmlns:xlink="http://www.w3.org/1999/xlink" xml:space="preserve" xmlns:serif="http://www.serif.com/" style="fill-rule:evenodd;clip-rule:evenodd;stroke-linejoin:round;stroke-miterlimit:2;">
    <g transform="matrix(2.067,0,0,2.26253,-2.86886,-5.6274)">
        <path d="M11.064,3.548L11.064,10.266C11.064,10.852 10.544,11.327 9.903,11.327L2.549,11.327C1.908,11.327 1.388,10.852 1.388,10.266L1.388,3.548C1.388,2.963 1.908,2.487 2.549,2.487L9.903,2.487C10.544,2.487 11.064,2.963 11.064,3.548ZM9.989,3.548C9.989,3.505 9.95,3.469 9.903,3.469L2.549,3.469C2.502,3.469 2.463,3.505 2.463,3.548L2.463,10.266C2.463,10.309 2.502,10.345 2.549,10.345L9.903,10.345C9.95,10.345 9.989,10.309 9.989,10.266L9.989,3.548Z" style="fill:rgb(134,162,165);"/>
    </g>
</svg>
