<?xml version="1.0" encoding="UTF-8" standalone="no"?>
<!DOCTYPE svg PUBLIC "-//W3C//DTD SVG 1.1//EN" "http://www.w3.org/Graphics/SVG/1.1/DTD/svg11.dtd">
<svg width="100%" height="100%" viewBox="0 0 20 20" version="1.1" xmlns="http://www.w3.org/2000/svg" xmlns:xlink="http://www.w3.org/1999/xlink" xml:space="preserve" xmlns:serif="http://www.serif.com/" style="fill-rule:evenodd;clip-rule:evenodd;stroke-linejoin:round;stroke-miterlimit:2;">
    <g transform="matrix(2.66027,0,0,2.17939,-3.25733,-3.82587)">
        <path d="M8.742,2.857L8.742,9.831C8.742,10.439 8.338,10.932 7.84,10.932L2.127,10.932C1.629,10.932 1.224,10.439 1.224,9.831L1.224,2.857C1.224,2.249 1.629,1.755 2.127,1.755L7.84,1.755C8.338,1.755 8.742,2.249 8.742,2.857ZM3.95,8.291C4.08,8.449 4.303,8.435 4.448,8.259L7.114,5.004C7.258,4.828 7.27,4.556 7.14,4.397C7.01,4.239 6.787,4.253 6.643,4.429L4.238,7.364L3.35,6.28C3.22,6.121 2.997,6.136 2.853,6.312C2.709,6.488 2.697,6.76 2.827,6.919L3.95,8.291Z" style="fill:rgb(12,125,105);"/>
    </g>
</svg>
